<svg width="520" height="114" viewBox="0 0 520 114" fill="none" xmlns="http://www.w3.org/2000/svg">
<path d="M48.0032 55.7608C48.0032 55.7608 16.0011 45.0584 0 7.59962C0 7.59962 26.6685 -8.45413 48.0032 23.6534V55.7608Z" fill="#4E7C6A"/>
<path d="M49.4579 54.3014V101.003" stroke="#4E7C6A" stroke-width="8.8" stroke-linecap="round"/>
<path d="M26.6685 109.273C40.8918 103.922 55.1147 103.922 69.338 109.273" stroke="#6B6560" stroke-width="8.8" stroke-linecap="round"/>
<path opacity="0.55" d="M48.0032 55.7608C48.0032 55.7608 80.0054 45.0584 96.0064 7.59962C96.0064 7.59962 69.338 -8.45413 48.0032 23.6534V55.7608Z" fill="#4E7C6A"/>
<path d="M162.499 90.2902C158.857 90.2902 155.217 89.9994 151.575 89.4184C147.934 88.9202 144.5 88.1314 141.273 87.0522C138.045 85.8897 135.149 84.4785 132.583 82.8179C131.094 81.8216 130.059 80.6178 129.48 79.2063C128.901 77.7947 128.694 76.4248 128.86 75.0965C129.108 73.6849 129.646 72.4812 130.473 71.4849C131.384 70.4057 132.501 69.7414 133.825 69.4923C135.149 69.2432 136.597 69.6168 138.169 70.6131C141.811 72.7719 145.659 74.3493 149.713 75.3456C153.768 76.3419 158.03 76.84 162.499 76.84C169.036 76.84 173.794 75.7608 176.774 73.602C179.753 71.3604 181.242 68.496 181.242 65.0089C181.242 62.1029 180.167 59.8199 178.015 58.1593C175.946 56.4987 172.346 55.1287 167.216 54.0495L153.561 51.1852C145.7 49.5245 139.824 46.7434 135.935 42.8411C132.128 38.8559 130.225 33.6253 130.225 27.1493C130.225 23.0812 131.052 19.3863 132.708 16.0654C134.363 12.7445 136.68 9.88016 139.659 7.47229C142.721 5.06442 146.32 3.23799 150.458 1.99261C154.679 0.664333 159.313 0 164.361 0C169.326 0 174.043 0.622693 178.511 1.86807C182.98 3.11346 186.994 4.93989 190.552 7.34775C191.876 8.26116 192.745 9.382 193.159 10.7103C193.655 12.0386 193.779 13.3672 193.531 14.6955C193.283 15.9409 192.704 17.0201 191.793 17.9335C190.883 18.8469 189.725 19.3863 188.318 19.5525C186.994 19.7187 185.463 19.3034 183.725 18.3071C180.663 16.5636 177.56 15.3182 174.415 14.571C171.27 13.8237 167.878 13.4501 164.237 13.4501C160.43 13.4501 157.161 13.9899 154.43 15.0691C151.699 16.1483 149.589 17.6844 148.1 19.677C146.693 21.5867 145.989 23.8697 145.989 26.5266C145.989 29.5155 146.983 31.9234 148.969 33.7498C150.955 35.4934 154.348 36.8633 159.147 37.8596L172.677 40.724C180.87 42.4675 186.952 45.2073 190.924 48.9435C194.979 52.6796 197.007 57.6612 197.007 63.8881C197.007 67.8733 196.179 71.4849 194.524 74.7229C192.952 77.9609 190.635 80.7424 187.573 83.0669C184.594 85.3915 180.994 87.1767 176.774 88.4221C172.553 89.6675 167.795 90.2902 162.499 90.2902ZM236.353 90.2902C230.974 90.2902 226.464 89.3767 222.823 87.5503C219.264 85.7239 216.616 83.0669 214.879 79.5799C213.141 76.0099 212.272 71.6094 212.272 66.3788V39.8522H205.817C203.831 39.8522 202.3 39.3541 201.224 38.3577C200.148 37.2785 199.61 35.8253 199.61 33.9989C199.61 32.0892 200.148 30.6364 201.224 29.6401C202.3 28.6438 203.831 28.1456 205.817 28.1456H212.272V16.8126C212.272 14.239 212.934 12.2876 214.258 10.9594C215.665 9.63108 217.61 8.96675 220.092 8.96675C222.575 8.96675 224.478 9.63108 225.802 10.9594C227.126 12.2876 227.788 14.239 227.788 16.8126V28.1456H240.946C242.932 28.1456 244.463 28.6438 245.539 29.6401C246.614 30.6364 247.152 32.0892 247.152 33.9989C247.152 35.8253 246.614 37.2785 245.539 38.3577C244.463 39.3541 242.932 39.8522 240.946 39.8522H227.788V65.5071C227.788 69.4923 228.657 72.4812 230.395 74.4738C232.133 76.4664 234.946 77.4627 238.836 77.4627C240.242 77.4627 241.484 77.3382 242.56 77.0891C243.635 76.84 244.587 76.6739 245.415 76.591C246.408 76.5081 247.235 76.84 247.897 77.5873C248.559 78.2516 248.89 79.6628 248.89 81.8215C248.89 83.4822 248.6 84.9767 248.021 86.3049C247.525 87.5503 246.573 88.4221 245.166 88.9202C244.09 89.2522 242.684 89.5429 240.946 89.792C239.208 90.124 237.677 90.2902 236.353 90.2902ZM285.497 90.2902C278.628 90.2902 272.711 89.0031 267.746 86.4295C262.781 83.8558 258.933 80.2026 256.202 75.4701C253.554 70.7377 252.23 65.1334 252.23 58.6575C252.23 52.3477 253.512 46.8263 256.078 42.0939C258.726 37.3614 262.326 33.6669 266.877 31.01C271.511 28.2702 276.766 26.9002 282.642 26.9002C286.945 26.9002 290.793 27.6058 294.186 29.0174C297.661 30.4289 300.599 32.4628 302.999 35.1198C305.482 37.7767 307.344 41.0147 308.585 44.8337C309.909 48.5699 310.571 52.8042 310.571 57.5366C310.571 59.0311 310.033 60.1936 308.957 61.0237C307.964 61.7709 306.516 62.1445 304.613 62.1445H264.767V53.1778H299.647L297.661 55.0459C297.661 51.2268 297.082 48.0301 295.924 45.4564C294.848 42.8828 293.234 40.9314 291.083 39.6031C289.013 38.1916 286.407 37.486 283.262 37.486C279.787 37.486 276.808 38.3161 274.325 39.9767C271.925 41.5541 270.063 43.8374 268.739 46.8263C267.498 49.7324 266.877 53.2194 266.877 57.2875V58.1593C266.877 64.9673 268.449 70.0733 271.594 73.4775C274.822 76.7984 279.538 78.459 285.745 78.459C287.896 78.459 290.296 78.2099 292.945 77.7118C295.675 77.1307 298.241 76.1757 300.641 74.8474C302.378 73.8511 303.909 73.4359 305.233 73.602C306.557 73.6849 307.592 74.1418 308.337 74.972C309.164 75.8021 309.66 76.84 309.826 78.0854C309.991 79.2479 309.743 80.4516 309.081 81.697C308.502 82.9424 307.468 84.0216 305.978 84.935C303.082 86.7614 299.73 88.1314 295.924 89.0448C292.2 89.8749 288.724 90.2902 285.497 90.2902ZM342.843 90.2902C338.456 90.2902 334.527 89.46 331.051 87.7994C327.658 86.0559 324.969 83.7313 322.983 80.8253C321.079 77.9192 320.128 74.64 320.128 70.9867C320.128 66.5034 321.286 62.9747 323.603 60.401C325.92 57.7441 329.686 55.8347 334.899 54.6722C340.113 53.5098 347.106 52.9287 355.877 52.9287H362.083V61.8955H356.001C350.869 61.8955 346.773 62.1445 343.712 62.6427C340.652 63.1408 338.456 64.0126 337.133 65.258C335.892 66.4205 335.271 68.0807 335.271 70.2395C335.271 72.9793 336.222 75.221 338.126 76.9646C340.031 78.7081 342.677 79.5799 346.071 79.5799C348.802 79.5799 351.203 78.9572 353.27 77.7118C355.423 76.3835 357.118 74.5983 358.36 72.3567C359.601 70.115 360.222 67.5413 360.222 64.6353V50.3134C360.222 46.162 359.31 43.1731 357.491 41.3467C355.671 39.5202 352.607 38.6068 348.305 38.6068C345.904 38.6068 343.297 38.8975 340.485 39.4786C337.754 40.0596 334.856 41.0559 331.796 42.4675C330.224 43.2147 328.817 43.4222 327.575 43.0902C326.417 42.7582 325.507 42.0939 324.845 41.0976C324.182 40.0184 323.852 38.8559 323.852 37.6105C323.852 36.3651 324.182 35.1614 324.845 33.9989C325.507 32.7535 326.624 31.8401 328.196 31.2591C332.003 29.6817 335.644 28.5609 339.12 27.8965C342.677 27.2322 345.904 26.9002 348.802 26.9002C354.76 26.9002 359.644 27.8136 363.449 29.6401C367.34 31.4665 370.233 34.248 372.138 37.9841C374.043 41.6374 374.993 46.3698 374.993 52.1815V82.0706C374.993 84.6443 374.372 86.6369 373.131 88.0485C371.89 89.3767 370.109 90.0411 367.793 90.0411C365.478 90.0411 363.654 89.3767 362.332 88.0485C361.09 86.6369 360.47 84.6443 360.47 82.0706V76.0928H361.463C360.885 78.9988 359.725 81.5308 357.987 83.6896C356.331 85.7651 354.221 87.3841 351.657 88.5466C349.093 89.7091 346.152 90.2902 342.843 90.2902ZM414.078 90.2902C408.783 90.2902 404.105 89.0031 400.052 86.4295C396.079 83.8558 392.976 80.2026 390.742 75.4701C388.508 70.6548 387.39 65.0089 387.39 58.5329C387.39 51.974 388.508 46.3698 390.742 41.7203C392.976 36.9878 396.079 33.3346 400.052 30.7609C404.105 28.1873 408.783 26.9002 414.078 26.9002C419.125 26.9002 423.512 28.1456 427.236 30.6364C431.041 33.1271 433.609 36.4068 434.932 40.4749H433.567V8.09498C433.567 5.52132 434.23 3.56996 435.553 2.24169C436.875 0.91341 438.78 0.249077 441.263 0.249077C443.745 0.249077 445.65 0.91341 446.973 2.24169C448.381 3.56996 449.083 5.52132 449.083 8.09498V82.0706C449.083 84.6443 448.419 86.6369 447.097 88.0485C445.774 89.3767 443.869 90.0411 441.387 90.0411C438.904 90.0411 437 89.3767 435.677 88.0485C434.354 86.6369 433.691 84.6443 433.691 82.0706V72.3567L435.056 76.0928C433.815 80.41 431.29 83.8558 427.484 86.4295C423.679 89.0031 419.21 90.2902 414.078 90.2902ZM418.423 78.459C421.483 78.459 424.175 77.7118 426.491 76.2173C428.807 74.7229 430.587 72.5228 431.829 69.6168C433.151 66.6279 433.815 62.9334 433.815 58.5329C433.815 51.8908 432.407 46.9509 429.594 43.7129C426.782 40.392 423.058 38.7314 418.423 38.7314C415.362 38.7314 412.67 39.4786 410.354 40.9731C408.039 42.3846 406.215 44.5847 404.893 47.5736C403.651 50.4796 403.031 54.1324 403.031 58.5329C403.031 65.0918 404.439 70.0733 407.251 73.4775C410.063 76.7984 413.787 78.459 418.423 78.459ZM480.565 112.458C478.742 112.458 477.252 111.96 476.096 110.963C474.937 110.05 474.234 108.805 473.986 107.227C473.819 105.65 474.11 103.989 474.855 102.246L483.296 83.4406V89.9165L460.704 37.486C459.96 35.6596 459.711 33.9573 459.96 32.3799C460.208 30.8026 460.953 29.5572 462.194 28.6438C463.517 27.6475 465.297 27.1493 467.532 27.1493C469.432 27.1493 470.964 27.6058 472.124 28.5192C473.28 29.3494 474.316 30.9684 475.228 33.3762L491.985 75.3456H488.261L505.391 33.2517C506.299 30.9271 507.377 29.3494 508.618 28.5192C509.86 27.6058 511.512 27.1493 513.584 27.1493C515.403 27.1493 516.85 27.6475 517.928 28.6438C519.003 29.5572 519.666 30.8026 519.914 32.3799C520.162 33.8744 519.872 35.535 519.045 37.3614L488.882 106.48C487.803 108.805 486.647 110.382 485.406 111.213C484.165 112.043 482.551 112.458 480.565 112.458Z" fill="#4E7C6A"/>
</svg>
